<svg width="337" height="337" viewBox="0 0 337 337" fill="none" xmlns="http://www.w3.org/2000/svg">
<circle cx="168.5" cy="168.5" r="165" stroke="url(#paint0_radial_166_157)" stroke-width="7"/>
<path d="M123.5 224C142.001 224 157 207.882 157 188C157 168.118 142.001 152 123.5 152C104.999 152 90 168.118 90 188C90 207.882 104.999 224 123.5 224Z" fill="url(#paint1_radial_166_157)"/>
<path d="M238.972 224H201.02C193.845 224 187.286 219.934 184.085 213.501L138.852 122.608C136.195 117.27 140.073 110.996 146.028 111H183.979C191.155 111 197.713 115.065 200.915 121.498L246.147 212.393C248.805 217.731 244.927 224.004 238.972 224Z" fill="url(#paint2_radial_166_157)"/>
<defs>
<radialGradient id="paint0_radial_166_157" cx="0" cy="0" r="1" gradientUnits="userSpaceOnUse" gradientTransform="translate(84.0265 74.6406) rotate(51.6247) scale(323.256)">
<stop stop-color="#DDECBC"/>
<stop offset="1" stop-color="#158EB2"/>
</radialGradient>
<radialGradient id="paint1_radial_166_157" cx="0" cy="0" r="1" gradientUnits="userSpaceOnUse" gradientTransform="translate(120.347 158.4) rotate(77.7958) scale(67.1168 62.5399)">
<stop stop-color="#EBF2BC"/>
<stop offset="1" stop-color="#0C8AB1"/>
</radialGradient>
<radialGradient id="paint2_radial_166_157" cx="0" cy="0" r="1" gradientUnits="userSpaceOnUse" gradientTransform="translate(124.572 125.91) rotate(55.2974) scale(119.314 114.607)">
<stop stop-color="#EBF2BC"/>
<stop offset="1" stop-color="#0C8AB1"/>
</radialGradient>
</defs>
</svg>
