<svg width="337" height="350" viewBox="0 0 337 350" fill="none" xmlns="http://www.w3.org/2000/svg">
<circle cx="168.5" cy="168.5" r="165" stroke="url(#paint0_linear_170_158)" stroke-width="7"/>
<path d="M142 150H122V160H142V150Z" fill="white"/>
<path d="M162 150H142V160H162V150Z" fill="black"/>
<path d="M212 150H192V160H212V150Z" fill="white"/>
<path d="M232 150H212V160H232V150Z" fill="black"/>
<path d="M142 160H122V170H142V160Z" fill="white"/>
<path d="M162 160H142V170H162V160Z" fill="black"/>
<path d="M212 160H192V170H212V160Z" fill="white"/>
<path d="M232 160H212V170H232V160Z" fill="black"/>
<path d="M142 170H122V180H142V170Z" fill="white"/>
<path d="M162 170H142V180H162V170Z" fill="black"/>
<path d="M212 170H192V180H212V170Z" fill="white"/>
<path d="M232 170H212V180H232V170Z" fill="black"/>
<path d="M142 180H122V190H142V180Z" fill="white"/>
<path d="M162 180H142V190H162V180Z" fill="black"/>
<path d="M212 180H192V190H212V180Z" fill="white"/>
<path d="M232 180H212V190H232V180Z" fill="black"/>
<path d="M172 140H112V150H172V140Z" fill="url(#paint1_linear_170_158)"/>
<path d="M242 140H182V150H242V140Z" fill="url(#paint2_linear_170_158)"/>
<path d="M122 150H112V160H122V150Z" fill="url(#paint3_linear_170_158)"/>
<path d="M172 150H162V160H172V150Z" fill="url(#paint4_linear_170_158)"/>
<path d="M192 150H182V160H192V150Z" fill="url(#paint5_linear_170_158)"/>
<path d="M242 150H232V160H242V150Z" fill="url(#paint6_linear_170_158)"/>
<path d="M122 160H82V170H122V160Z" fill="url(#paint7_linear_170_158)"/>
<path d="M192 160H162V170H192V160Z" fill="url(#paint8_linear_170_158)"/>
<path d="M242 160H232V170H242V160Z" fill="url(#paint9_linear_170_158)"/>
<path d="M92 170H82V180H92V170Z" fill="url(#paint10_linear_170_158)"/>
<path d="M122 170H112V180H122V170Z" fill="url(#paint11_linear_170_158)"/>
<path d="M172 170H162V180H172V170Z" fill="url(#paint12_linear_170_158)"/>
<path d="M192 170H182V180H192V170Z" fill="url(#paint13_linear_170_158)"/>
<path d="M242 170H232V180H242V170Z" fill="url(#paint14_linear_170_158)"/>
<path d="M92 180H82V190H92V180Z" fill="url(#paint15_linear_170_158)"/>
<path d="M122 180H112V190H122V180Z" fill="url(#paint16_linear_170_158)"/>
<path d="M172 180H162V190H172V180Z" fill="url(#paint17_linear_170_158)"/>
<path d="M192 180H182V190H192V180Z" fill="url(#paint18_linear_170_158)"/>
<path d="M242 180H232V190H242V180Z" fill="url(#paint19_linear_170_158)"/>
<path d="M172 190H112V200H172V190Z" fill="url(#paint20_linear_170_158)"/>
<path d="M242 190H182V200H242V190Z" fill="url(#paint21_linear_170_158)"/>
<defs>
<linearGradient id="paint0_linear_170_158" x1="101" y1="64" x2="240" y2="337" gradientUnits="userSpaceOnUse">
<stop stop-color="#FDA0E3"/>
<stop offset="1" stop-color="#AD1DB8"/>
</linearGradient>
<linearGradient id="paint1_linear_170_158" x1="142.5" y1="131.5" x2="162" y2="220.5" gradientUnits="userSpaceOnUse">
<stop stop-color="#FEA1E3"/>
<stop offset="1" stop-color="#AD1DB8"/>
</linearGradient>
<linearGradient id="paint2_linear_170_158" x1="142.5" y1="131.5" x2="162" y2="220.5" gradientUnits="userSpaceOnUse">
<stop stop-color="#FEA1E3"/>
<stop offset="1" stop-color="#AD1DB8"/>
</linearGradient>
<linearGradient id="paint3_linear_170_158" x1="142.5" y1="131.5" x2="162" y2="220.5" gradientUnits="userSpaceOnUse">
<stop stop-color="#FEA1E3"/>
<stop offset="1" stop-color="#AD1DB8"/>
</linearGradient>
<linearGradient id="paint4_linear_170_158" x1="142.5" y1="131.5" x2="162" y2="220.5" gradientUnits="userSpaceOnUse">
<stop stop-color="#FEA1E3"/>
<stop offset="1" stop-color="#AD1DB8"/>
</linearGradient>
<linearGradient id="paint5_linear_170_158" x1="142.5" y1="131.5" x2="162" y2="220.5" gradientUnits="userSpaceOnUse">
<stop stop-color="#FEA1E3"/>
<stop offset="1" stop-color="#AD1DB8"/>
</linearGradient>
<linearGradient id="paint6_linear_170_158" x1="142.5" y1="131.5" x2="162" y2="220.5" gradientUnits="userSpaceOnUse">
<stop stop-color="#FEA1E3"/>
<stop offset="1" stop-color="#AD1DB8"/>
</linearGradient>
<linearGradient id="paint7_linear_170_158" x1="142.5" y1="131.5" x2="162" y2="220.5" gradientUnits="userSpaceOnUse">
<stop stop-color="#FEA1E3"/>
<stop offset="1" stop-color="#AD1DB8"/>
</linearGradient>
<linearGradient id="paint8_linear_170_158" x1="142.5" y1="131.5" x2="162" y2="220.5" gradientUnits="userSpaceOnUse">
<stop stop-color="#FEA1E3"/>
<stop offset="1" stop-color="#AD1DB8"/>
</linearGradient>
<linearGradient id="paint9_linear_170_158" x1="142.5" y1="131.5" x2="162" y2="220.5" gradientUnits="userSpaceOnUse">
<stop stop-color="#FEA1E3"/>
<stop offset="1" stop-color="#AD1DB8"/>
</linearGradient>
<linearGradient id="paint10_linear_170_158" x1="142.5" y1="131.5" x2="162" y2="220.5" gradientUnits="userSpaceOnUse">
<stop stop-color="#FEA1E3"/>
<stop offset="1" stop-color="#AD1DB8"/>
</linearGradient>
<linearGradient id="paint11_linear_170_158" x1="142.5" y1="131.5" x2="162" y2="220.5" gradientUnits="userSpaceOnUse">
<stop stop-color="#FEA1E3"/>
<stop offset="1" stop-color="#AD1DB8"/>
</linearGradient>
<linearGradient id="paint12_linear_170_158" x1="142.5" y1="131.5" x2="162" y2="220.5" gradientUnits="userSpaceOnUse">
<stop stop-color="#FEA1E3"/>
<stop offset="1" stop-color="#AD1DB8"/>
</linearGradient>
<linearGradient id="paint13_linear_170_158" x1="142.5" y1="131.5" x2="162" y2="220.5" gradientUnits="userSpaceOnUse">
<stop stop-color="#FEA1E3"/>
<stop offset="1" stop-color="#AD1DB8"/>
</linearGradient>
<linearGradient id="paint14_linear_170_158" x1="142.5" y1="131.5" x2="162" y2="220.5" gradientUnits="userSpaceOnUse">
<stop stop-color="#FEA1E3"/>
<stop offset="1" stop-color="#AD1DB8"/>
</linearGradient>
<linearGradient id="paint15_linear_170_158" x1="142.5" y1="131.5" x2="162" y2="220.5" gradientUnits="userSpaceOnUse">
<stop stop-color="#FEA1E3"/>
<stop offset="1" stop-color="#AD1DB8"/>
</linearGradient>
<linearGradient id="paint16_linear_170_158" x1="142.5" y1="131.5" x2="162" y2="220.5" gradientUnits="userSpaceOnUse">
<stop stop-color="#FEA1E3"/>
<stop offset="1" stop-color="#AD1DB8"/>
</linearGradient>
<linearGradient id="paint17_linear_170_158" x1="142.5" y1="131.5" x2="162" y2="220.5" gradientUnits="userSpaceOnUse">
<stop stop-color="#FEA1E3"/>
<stop offset="1" stop-color="#AD1DB8"/>
</linearGradient>
<linearGradient id="paint18_linear_170_158" x1="142.5" y1="131.5" x2="162" y2="220.5" gradientUnits="userSpaceOnUse">
<stop stop-color="#FEA1E3"/>
<stop offset="1" stop-color="#AD1DB8"/>
</linearGradient>
<linearGradient id="paint19_linear_170_158" x1="142.5" y1="131.5" x2="162" y2="220.5" gradientUnits="userSpaceOnUse">
<stop stop-color="#FEA1E3"/>
<stop offset="1" stop-color="#AD1DB8"/>
</linearGradient>
<linearGradient id="paint20_linear_170_158" x1="142.5" y1="131.5" x2="162" y2="220.5" gradientUnits="userSpaceOnUse">
<stop stop-color="#FEA1E3"/>
<stop offset="1" stop-color="#AD1DB8"/>
</linearGradient>
<linearGradient id="paint21_linear_170_158" x1="142.5" y1="131.5" x2="162" y2="220.5" gradientUnits="userSpaceOnUse">
<stop stop-color="#FEA1E3"/>
<stop offset="1" stop-color="#AD1DB8"/>
</linearGradient>
</defs>
</svg>
